<?xml version="1.0" standalone="no"?>
<!DOCTYPE svg PUBLIC "-//W3C//DTD SVG 20010904//EN"
 "http://www.w3.org/TR/2001/REC-SVG-20010904/DTD/svg10.dtd">
<svg version="1.0" xmlns="http://www.w3.org/2000/svg"
 width="512.000000pt" height="512.000000pt" viewBox="0 0 512.000000 512.000000"
 preserveAspectRatio="xMidYMid meet">

<g transform="translate(0.000000,512.000000) scale(0.100000,-0.100000)"
fill="#000000" stroke="none">
<path d="M4410 3468 l0 -763 -401 400 c-221 220 -381 373 -356 340 130 -170
216 -363 262 -592 l7 -33 -370 0 -370 0 -22 55 c-31 76 -108 182 -172 239
-137 121 -341 171 -531 131 -232 -49 -408 -222 -479 -470 -32 -114 -32 -316 0
-430 32 -109 86 -208 157 -284 125 -134 263 -193 450 -195 182 -1 301 48 425
173 77 78 124 153 155 249 l17 52 374 0 373 0 -6 -37 c-3 -21 -16 -80 -30
-132 -111 -435 -419 -774 -835 -917 -138 -47 -243 -65 -423 -71 -190 -6 -333
12 -495 62 -115 36 -308 133 -400 200 -54 40 99 -117 534 -550 476 -472 612
-602 623 -594 10 9 13 6 13 -12 0 -21 5 -18 50 26 l50 49 0 -39 0 -39 50 49
c46 45 50 47 50 25 0 -22 4 -20 50 25 39 38 50 45 50 30 0 -15 11 -8 50 30
l50 49 0 -44 0 -44 50 49 c39 38 50 45 50 30 0 -15 11 -8 50 30 l50 49 0 -39
0 -39 50 49 c46 45 50 47 50 25 0 -22 4 -20 50 25 38 37 50 45 50 31 0 -18 1
-18 20 -1 19 17 20 17 20 -1 0 -13 16 -3 60 41 54 53 60 57 60 35 0 -22 7 -18
64 39 l64 63 7 -32 7 -32 49 48 c45 45 49 46 49 24 0 -22 4 -20 50 25 l50 49
0 -39 0 -39 50 49 50 49 0 -44 0 -44 50 49 c28 27 50 46 50 42 0 -24 151 168
243 308 401 612 508 1382 290 2094 -94 309 -284 651 -490 884 l-43 48 0 -763z"/>
</g>
</svg>
