<svg width="20" height="33" viewBox="0 0 20 33" fill="none" xmlns="http://www.w3.org/2000/svg">
<path fill-rule="evenodd" clip-rule="evenodd" d="M18.7386 0.794802C19.1375 1.19418 19.3615 1.73555 19.3615 2.3C19.3615 2.86445 19.1375 3.40582 18.7386 3.8052L6.0438 16.5L18.7386 29.1948C18.9479 29.3898 19.1157 29.625 19.2321 29.8862C19.3486 30.1475 19.4112 30.4296 19.4162 30.7156C19.4212 31.0016 19.3686 31.2856 19.2615 31.5509C19.1544 31.8161 18.9949 32.057 18.7927 32.2593C18.5904 32.4615 18.3495 32.621 18.0843 32.7281C17.819 32.8352 17.5349 32.8878 17.249 32.8828C16.963 32.8778 16.6809 32.8152 16.4196 32.6987C16.1584 32.5823 15.9232 32.4145 15.7282 32.2052L1.5282 18.0052C1.12932 17.6058 0.905273 17.0645 0.905273 16.5C0.905273 15.9355 1.12932 15.3942 1.5282 14.9948L15.7282 0.794802C16.1276 0.395922 16.6689 0.171875 17.2334 0.171875C17.7979 0.171875 18.3392 0.395922 18.7386 0.794802V0.794802Z" fill="black"/>
</svg>
