<svg width="20" height="33" viewBox="0 0 20 33" fill="none" xmlns="http://www.w3.org/2000/svg">
<path fill-rule="evenodd" clip-rule="evenodd" d="M1.2614 32.2052C0.862523 31.8058 0.638476 31.2644 0.638476 30.7C0.638476 30.1355 0.862523 29.5942 1.2614 29.1948L13.9562 16.5L1.2614 3.8052C1.05213 3.6102 0.884282 3.37504 0.767865 3.11376C0.651448 2.85249 0.58885 2.57044 0.583804 2.28444C0.578758 1.99844 0.631369 1.71436 0.738497 1.44914C0.845624 1.18391 1.00507 0.942989 1.20734 0.740727C1.4096 0.538466 1.65052 0.379016 1.91575 0.271888C2.18097 0.164761 2.46505 0.11215 2.75105 0.117196C3.03705 0.122242 3.31909 0.18484 3.58037 0.301257C3.84165 0.417674 4.0768 0.585526 4.2718 0.794797L18.4718 14.9948C18.8707 15.3942 19.0947 15.9355 19.0947 16.5C19.0947 17.0645 18.8707 17.6058 18.4718 18.0052L4.2718 32.2052C3.87242 32.6041 3.33105 32.8281 2.7666 32.8281C2.20215 32.8281 1.66078 32.6041 1.2614 32.2052V32.2052Z" fill="black"/>
</svg>
